<svg xmlns="http://www.w3.org/2000/svg" width="61" height="72" viewBox="0 0 61 72">
    <g fill="#FFF" fill-rule="evenodd">
        <path d="M8.06 67a7.12 7.12 0 0 1-2.48.47 5.5 5.5 0 0 1-4.84-2.84 6.1 6.1 0 0 1-.74-3 6.69 6.69 0 0 1 .72-3.19 5 5 0 0 1 2-2.08 6.32 6.32 0 0 1 3.07-.72H11v15.75H8.06V67zm-1.53-9C4.177 58 3 59.253 3 61.76a3.56 3.56 0 0 0 .87 2.51 3 3 0 0 0 2.33.95 3.9 3.9 0 0 0 1.87-.49V58H6.53zM19.38 55.44a6.51 6.51 0 0 1 3.14.76 5.36 5.36 0 0 1 2.18 2.13 6.2 6.2 0 0 1 .77 3.1 6.49 6.49 0 0 1-.74 3.16 5.3 5.3 0 0 1-2.18 2.14 6.51 6.51 0 0 1-3.17.78 6.44 6.44 0 0 1-3.16-.78 5.33 5.33 0 0 1-2.16-2.14 6.49 6.49 0 0 1-.74-3.16 6.15 6.15 0 0 1 .78-3.12 5.44 5.44 0 0 1 2.18-2.11 6.45 6.45 0 0 1 3.1-.76zm-3 6a4.4 4.4 0 0 0 .81 2.78 2.62 2.62 0 0 0 2.17 1 2.74 2.74 0 0 0 2.24-1 4.38 4.38 0 0 0 .82-2.85 4.08 4.08 0 0 0-.82-2.73 2.78 2.78 0 0 0-2.23-1 2.65 2.65 0 0 0-2.16 1 4.15 4.15 0 0 0-.84 2.79l.01.01zM29.52 55.67l2.65 6.73 2.59-6.73h3.1l-5 11.84h-1.4l-5.07-11.84zM44.33 55.44a4.84 4.84 0 0 1 3.86 1.64 6.71 6.71 0 0 1 1.42 4.54v.46h-7.83a3.34 3.34 0 0 0 3.43 3.24h.23a5.47 5.47 0 0 0 2-.38 8.67 8.67 0 0 0 2-1.15v2.28a7.69 7.69 0 0 1-4.71 1.44 5.79 5.79 0 0 1-4.28-1.65 5.94 5.94 0 0 1-1.66-4.4 6.17 6.17 0 0 1 1.53-4.33 5.16 5.16 0 0 1 4.01-1.69zm2.55 4.79a3.46 3.46 0 0 0-.73-2 2.12 2.12 0 0 0-1.69-.72 2.36 2.36 0 0 0-1.77.68 3.46 3.46 0 0 0-.85 2l5.04.04zM58.22 55.44a2.59 2.59 0 0 1 1.14.27c.474.25.914.559 1.31.92l-1 2.67a3.75 3.75 0 0 0-2-1 2.12 2.12 0 0 0-1.33.53 3.76 3.76 0 0 0-1 1.4 4.16 4.16 0 0 0-.4 1.74v5.3h-3v-11.6h2.91v3a8.08 8.08 0 0 1 1.6-2.43 2.54 2.54 0 0 1 1.77-.8zM41.59 31.23a14.72 14.72 0 0 1-22.49 0L13 34.71a21.59 21.59 0 0 0 30.22 4.37l.63-.49.18.11 4.83 2.77a27.24 27.24 0 0 0 3.53-4l-10.8-6.24zM15.59 21.68a14.75 14.75 0 1 1 28.61 5l6.1 3.52a21.7 21.7 0 1 0-39.94 0l6.1-3.52a14.68 14.68 0 0 1-.87-5z"/>
    </g>
</svg>
